<svg viewBox="-0.5 -0.5 1651 2291" height="2291px" width="1651px" version="1.1" xmlns:xlink="http://www.w3.org/1999/xlink" xmlns="http://www.w3.org/2000/svg"><defs></defs><g><g data-cell-id="0"><g data-cell-id="1"><g data-cell-id="ZAhxkZwERCSujFTvZFaI-46"><g><ellipse stroke="#06315c" fill="#083f75" ry="40.5" rx="40.5" cy="40.5" cx="1200"></ellipse><path stroke-miterlimit="10" stroke="#06315c" fill="#083f75" d="M 1100 105.3 C 1100 82.93 1118.13 64.8 1140.5 64.8 L 1259.5 64.8 C 1281.87 64.8 1300 82.93 1300 105.3 L 1300 139.5 C 1300 161.87 1281.87 180 1259.5 180 L 1140.5 180 C 1118.13 180 1100 161.87 1100 139.5 Z"></path><ellipse stroke="#06315c" fill="#083f75" ry="40.5" rx="40.5" cy="40.5" cx="1200"></ellipse></g><g><g transform="translate(-0.5 -0.5)"><switch><text text-anchor="middle" font-size="11px" font-family="&quot;Helvetica&quot;" fill="#ffffff" y="125" x="1200">System Administrator...</text></switch></g></g></g><g data-cell-id="ZAhxkZwERCSujFTvZFaI-48"><g><rect stroke="#736782" fill="#8c8496" ry="12" rx="12" height="120" width="240" y="2100" x="600"></rect></g><g><g transform="translate(-0.5 -0.5)"><switch><text text-anchor="middle" font-size="12px" font-family="&quot;Helvetica&quot;" fill="#ffffff" y="2164" x="720">Monitored system...</text></switch></g></g></g><g data-cell-id="ZAhxkZwERCSujFTvZFaI-51"><g><path stroke-miterlimit="10" stroke="#828282" fill="none" d="M 1200 180 L 1200 370 L 1370 370 L 1370 443.88"></path><path stroke-miterlimit="10" stroke="#828282" fill="#828282" d="M 1370 458.88 L 1365 443.88 L 1375 443.88 Z"></path></g><g data-cell-id="ZAhxkZwERCSujFTvZFaI-52"><g><g transform="translate(-0.5 -0.5)"><switch><text text-anchor="middle" font-size="11px" font-family="&quot;Helvetica&quot;" fill="rgb(0, 0, 0)" y="291" x="1202">Views raports, incidents and...</text></switch></g></g></g></g><g data-cell-id="ZAhxkZwERCSujFTvZFaI-53"><g><path stroke-miterlimit="10" stroke="#828282" fill="none" d="M 634 1950 L 634 2025 L 720 2025 L 720 2083.88"></path><path stroke-miterlimit="10" stroke="#828282" fill="#828282" d="M 720 2098.88 L 715 2083.88 L 725 2083.88 Z"></path></g><g data-cell-id="ZAhxkZwERCSujFTvZFaI-54"><g><g transform="translate(-0.5 -0.5)"><switch><text text-anchor="middle" font-size="11px" font-family="&quot;Helvetica&quot;" fill="rgb(0, 0, 0)" y="2039" x="721">Gets node logs from</text></switch></g></g></g></g><g data-cell-id="ZAhxkZwERCSujFTvZFaI-59"><g><rect stroke="#736782" fill="#8c8496" ry="12" rx="12" height="120" width="240" y="210" x="1410"></rect></g><g><g transform="translate(-0.5 -0.5)"><switch><text text-anchor="middle" font-size="12px" font-family="&quot;Helvetica&quot;" fill="#ffffff" y="274" x="1530">Notification system...</text></switch></g></g></g><g data-cell-id="ZAhxkZwERCSujFTvZFaI-61"><g><rect stroke-dasharray="8 4" stroke="#666666" fill="none" ry="10" rx="10" height="1140" width="1630" y="340" x="0"></rect></g><g><g transform="translate(-0.5 -0.5)"><switch><text font-size="11px" font-family="&quot;Helvetica&quot;" fill="#333333" y="1469" x="10">Magpie Monitor Cloud...</text></switch></g></g></g><g data-cell-id="ZAhxkZwERCSujFTvZFaI-62"><g><rect stroke="#d6b656" fill="#fff2cc" ry="12" rx="12" height="120" width="240" y="1830" x="514"></rect></g><g><g transform="translate(-0.5 -0.5)"><switch><text text-anchor="middle" font-size="11px" font-family="&quot;Helvetica&quot;" fill="rgb(0, 0, 0)" y="1893" x="634">Node Collector Agent...</text></switch></g></g></g><g data-cell-id="ZAhxkZwERCSujFTvZFaI-66"><g><rect stroke="#736782" fill="#8c8496" ry="12" rx="12" height="120" width="240" y="180" x="60"></rect></g><g><g transform="translate(-0.5 -0.5)"><switch><text text-anchor="middle" font-size="12px" font-family="&quot;Helvetica&quot;" fill="#ffffff" y="244" x="180">Large Language Model...</text></switch></g></g></g><g data-cell-id="ZAhxkZwERCSujFTvZFaI-76"><g><path stroke-miterlimit="10" stroke="#82b366" fill="#d5e8d4" d="M 340 885 C 340 876.72 393.73 870 460 870 C 491.83 870 522.35 871.58 544.85 874.39 C 567.36 877.21 580 881.02 580 885 L 580 975 C 580 983.28 526.27 990 460 990 C 393.73 990 340 983.28 340 975 Z"></path><path stroke-miterlimit="10" stroke="#82b366" fill="none" d="M 580 885 C 580 893.28 526.27 900 460 900 C 393.73 900 340 893.28 340 885"></path></g><g><g transform="translate(-0.5 -0.5)"><switch><text text-anchor="middle" font-size="12px" font-family="&quot;Helvetica&quot;" fill="rgb(0, 0, 0)" y="947" x="460">Reports Database...</text></switch></g></g></g><g data-cell-id="ZAhxkZwERCSujFTvZFaI-79"><g><path stroke-miterlimit="10" stroke="#d79b00" fill="#ffe6cc" d="M 1360 1034 C 1360 1025.72 1413.73 1019 1480 1019 C 1511.83 1019 1542.35 1020.58 1564.85 1023.39 C 1587.36 1026.21 1600 1030.02 1600 1034 L 1600 1124 C 1600 1132.28 1546.27 1139 1480 1139 C 1413.73 1139 1360 1132.28 1360 1124 Z"></path><path stroke-miterlimit="10" stroke="#d79b00" fill="none" d="M 1600 1034 C 1600 1042.28 1546.27 1049 1480 1049 C 1413.73 1049 1360 1042.28 1360 1034"></path></g><g><g transform="translate(-0.5 -0.5)"><switch><text text-anchor="middle" font-size="12px" font-family="&quot;Helvetica&quot;" fill="rgb(0, 0, 0)" y="1096" x="1480">User Settings Database...</text></switch></g></g></g><g data-cell-id="ZAhxkZwERCSujFTvZFaI-93"><g><path stroke-miterlimit="10" stroke="#828282" fill="none" d="M 1470 770.1 L 1560 770 L 1560 460 L 1561.37 365.98"></path><path stroke-miterlimit="10" stroke="#828282" fill="#828282" d="M 1561.58 350.98 L 1566.37 366.05 L 1556.37 365.9 Z"></path></g><g><g transform="translate(-0.5 -0.5)"><switch><text text-anchor="middle" font-size="10px" font-family="&quot;Helvetica&quot;" fill="#404040" y="606" x="1560">Sends notifications...</text></switch></g></g></g><g data-cell-id="ZAhxkZwERCSujFTvZFaI-94"><g><path stroke-miterlimit="10" stroke="#828282" fill="none" d="M 1370 620 L 1370 663.88"></path><path stroke-miterlimit="10" stroke="#828282" fill="#828282" d="M 1370 678.88 L 1365 663.88 L 1375 663.88 Z"></path></g><g><g transform="translate(-0.5 -0.5)"><switch><text text-anchor="middle" font-size="10px" font-family="&quot;Helvetica&quot;" fill="#404040" y="653" x="1370">Reads reports and user settings...</text></switch></g></g></g><g data-cell-id="D1M34NYYOUFZSW-ZMFoi-1"><g><path stroke-miterlimit="10" stroke="#6c8ebf" fill="#dae8fc" d="M 80 885 C 80 876.72 133.73 870 200 870 C 231.83 870 262.35 871.58 284.85 874.39 C 307.36 877.21 320 881.02 320 885 L 320 975 C 320 983.28 266.27 990 200 990 C 133.73 990 80 983.28 80 975 Z"></path><path stroke-miterlimit="10" stroke="#6c8ebf" fill="none" d="M 320 885 C 320 893.28 266.27 900 200 900 C 133.73 900 80 893.28 80 885"></path></g><g><g transform="translate(-0.5 -0.5)"><switch><text text-anchor="middle" font-size="12px" font-family="&quot;Helvetica&quot;" fill="rgb(0, 0, 0)" y="947" x="200">Log Storage...</text></switch></g></g></g><g data-cell-id="eQmtFs-PxKMfzNlPE_j_-2"><g><path transform="rotate(90,200,1340)" stroke-miterlimit="10" stroke="#6c8ebf" fill="#dae8fc" d="M 140 1235 C 140 1226.72 166.86 1220 200 1220 C 215.91 1220 231.17 1221.58 242.43 1224.39 C 253.68 1227.21 260 1231.02 260 1235 L 260 1445 C 260 1453.28 233.14 1460 200 1460 C 166.86 1460 140 1453.28 140 1445 Z"></path><path transform="rotate(90,200,1340)" stroke-miterlimit="10" stroke="#6c8ebf" fill="none" d="M 260 1235 C 260 1243.28 233.14 1250 200 1250 C 166.86 1250 140 1243.28 140 1235"></path></g><g><g transform="translate(-0.5 -0.5)"><switch><text text-anchor="middle" font-size="12px" font-family="&quot;Helvetica&quot;" fill="rgb(0, 0, 0)" y="1344" x="187">Logs Queue...</text></switch></g></g></g><g data-cell-id="eQmtFs-PxKMfzNlPE_j_-3"><g><rect stroke-dasharray="8 4" stroke="#666666" fill="none" ry="10" rx="10" height="580" width="1331" y="1710" x="0"></rect></g><g><g transform="translate(-0.5 -0.5)"><switch><text font-size="11px" font-family="&quot;Helvetica&quot;" fill="#333333" y="2279" x="10">&nbsp;</text></switch></g></g></g><g data-cell-id="eQmtFs-PxKMfzNlPE_j_-4"><g><rect stroke="#d6b656" fill="#fff2cc" ry="12" rx="12" height="120" width="240" y="1830" x="254"></rect></g><g><g transform="translate(-0.5 -0.5)"><switch><text text-anchor="middle" font-size="11px" font-family="&quot;Helvetica&quot;" fill="rgb(0, 0, 0)" y="1893" x="374">Pod Collector Agent...</text></switch></g></g></g><g data-cell-id="eQmtFs-PxKMfzNlPE_j_-6"><g><path transform="rotate(90,740,1340)" stroke-miterlimit="10" stroke="#b85450" fill="#f8cecc" d="M 680 1235 C 680 1226.72 706.86 1220 740 1220 C 755.91 1220 771.17 1221.58 782.43 1224.39 C 793.68 1227.21 800 1231.02 800 1235 L 800 1445 C 800 1453.28 773.14 1460 740 1460 C 706.86 1460 680 1453.28 680 1445 Z"></path><path transform="rotate(90,740,1340)" stroke-miterlimit="10" stroke="#b85450" fill="none" d="M 800 1235 C 800 1243.28 773.14 1250 740 1250 C 706.86 1250 680 1243.28 680 1235"></path></g><g><g transform="translate(-0.5 -0.5)"><switch><text text-anchor="middle" font-size="12px" font-family="&quot;Helvetica&quot;" fill="rgb(0, 0, 0)" y="1344" x="727">Cluster metadata Queue...</text></switch></g></g></g><g data-cell-id="eQmtFs-PxKMfzNlPE_j_-12"><g><path transform="rotate(90,780,600)" stroke-miterlimit="10" stroke="#82b366" fill="#d5e8d4" d="M 720 495 C 720 486.72 746.86 480 780 480 C 795.91 480 811.17 481.58 822.43 484.39 C 833.68 487.21 840 491.02 840 495 L 840 705 C 840 713.28 813.14 720 780 720 C 746.86 720 720 713.28 720 705 Z"></path><path transform="rotate(90,780,600)" stroke-miterlimit="10" stroke="#82b366" fill="none" d="M 840 495 C 840 503.28 813.14 510 780 510 C 746.86 510 720 503.28 720 495"></path></g><g><g transform="translate(-0.5 -0.5)"><switch><text text-anchor="middle" font-size="12px" font-family="&quot;Helvetica&quot;" fill="rgb(0, 0, 0)" y="604" x="767">Report Requested tasks Queue...</text></switch></g></g></g><g data-cell-id="eQmtFs-PxKMfzNlPE_j_-13"><g><path transform="rotate(90,780,740)" stroke-miterlimit="10" stroke="#82b366" fill="#d5e8d4" d="M 720 635 C 720 626.72 746.86 620 780 620 C 795.91 620 811.17 621.58 822.43 624.39 C 833.68 627.21 840 631.02 840 635 L 840 845 C 840 853.28 813.14 860 780 860 C 746.86 860 720 853.28 720 845 Z"></path><path transform="rotate(90,780,740)" stroke-miterlimit="10" stroke="#82b366" fill="none" d="M 840 635 C 840 643.28 813.14 650 780 650 C 746.86 650 720 643.28 720 635"></path></g><g><g transform="translate(-0.5 -0.5)"><switch><text text-anchor="middle" font-size="12px" font-family="&quot;Helvetica&quot;" fill="rgb(0, 0, 0)" y="744" x="767">Report Generated Tasks Queue...</text></switch></g></g></g><g data-cell-id="eQmtFs-PxKMfzNlPE_j_-20"><g><path stroke-miterlimit="10" stroke="#828282" fill="none" d="M 190 550 L 180 550 L 180 316.12"></path><path stroke-miterlimit="10" stroke="#828282" fill="#828282" d="M 180 301.12 L 185 316.12 L 175 316.12 Z"></path></g><g data-cell-id="eQmtFs-PxKMfzNlPE_j_-24"><g><g transform="translate(-0.5 -0.5)"><switch><text text-anchor="middle" font-size="11px" font-family="&quot;Helvetica&quot;" fill="rgb(0, 0, 0)" y="440" x="222">Generates report...</text></switch></g></g></g></g><g data-cell-id="eQmtFs-PxKMfzNlPE_j_-28"><g><path stroke-miterlimit="10" stroke="#828282" fill="none" d="M 696 1070 L 696 950 L 903.88 950"></path><path stroke-miterlimit="10" stroke="#828282" fill="#828282" d="M 918.88 950 L 903.88 955 L 903.88 945 Z"></path></g><g data-cell-id="eQmtFs-PxKMfzNlPE_j_-29"><g><g transform="translate(-0.5 -0.5)"><switch><text text-anchor="middle" font-size="11px" font-family="&quot;Helvetica&quot;" fill="rgb(0, 0, 0)" y="935" x="796">Publishes application metadata to the queue
</text></switch></g></g></g></g><g data-cell-id="eQmtFs-PxKMfzNlPE_j_-34"><g><path transform="rotate(90,1040,950)" stroke-miterlimit="10" stroke="#b85450" fill="#f8cecc" d="M 980 845 C 980 836.72 1006.86 830 1040 830 C 1055.91 830 1071.17 831.58 1082.43 834.39 C 1093.68 837.21 1100 841.02 1100 845 L 1100 1055 C 1100 1063.28 1073.14 1070 1040 1070 C 1006.86 1070 980 1063.28 980 1055 Z"></path><path transform="rotate(90,1040,950)" stroke-miterlimit="10" stroke="#b85450" fill="none" d="M 1100 845 C 1100 853.28 1073.14 860 1040 860 C 1006.86 860 980 853.28 980 845"></path></g><g><g transform="translate(-0.5 -0.5)"><switch><text text-anchor="middle" font-size="12px" font-family="&quot;Helvetica&quot;" fill="rgb(0, 0, 0)" y="954" x="1027">Cluster Metadata Updated Queue...</text></switch></g></g></g><g data-cell-id="eQmtFs-PxKMfzNlPE_j_-35"><g><path stroke-miterlimit="10" stroke="#828282" fill="none" d="M 1302.35 820 L 1190 820 L 1190 954.67 L 1174.44 954.67"></path><path stroke-miterlimit="10" stroke="#828282" fill="#828282" d="M 1159.44 954.68 L 1174.44 949.67 L 1174.44 959.67 Z"></path></g><g data-cell-id="eQmtFs-PxKMfzNlPE_j_-36"><g><g transform="translate(-0.5 -0.5)"><switch><text text-anchor="middle" font-size="11px" font-family="&quot;Helvetica&quot;" fill="rgb(0, 0, 0)" y="851" x="1182">Subscribes to cluster metadata updates</text></switch></g></g></g></g><g data-cell-id="eQmtFs-PxKMfzNlPE_j_-38"><g><path stroke-miterlimit="10" stroke="#828282" fill="none" d="M 286.6 628.2 L 297 628.33 L 297 641 L 480 641 L 480 600 L 643.88 600"></path><path stroke-miterlimit="10" stroke="#828282" fill="#828282" d="M 658.88 600 L 643.88 605 L 643.88 595 Z"></path></g></g><g data-cell-id="eQmtFs-PxKMfzNlPE_j_-39"><g><path stroke-miterlimit="10" stroke="#828282" fill="none" d="M 261.4 680.05 L 475 680 L 475 740 L 643.88 740"></path><path stroke-miterlimit="10" stroke="#828282" fill="#828282" d="M 658.88 740 L 643.88 745 L 643.88 735 Z"></path></g><g data-cell-id="eQmtFs-PxKMfzNlPE_j_-44"><g><g transform="translate(-0.5 -0.5)"><switch><text text-anchor="middle" font-size="11px" font-family="&quot;Helvetica&quot;" fill="rgb(0, 0, 0)" y="694" x="481">Publishes report once it's generated</text></switch></g></g></g></g><g data-cell-id="eQmtFs-PxKMfzNlPE_j_-40"><g><path stroke-miterlimit="10" stroke="#828282" fill="none" d="M 1270 760 L 906.12 760"></path><path stroke-miterlimit="10" stroke="#828282" fill="#828282" d="M 891.12 760 L 906.12 755 L 906.12 765 Z"></path></g><g data-cell-id="eQmtFs-PxKMfzNlPE_j_-48"><g><g transform="translate(-0.5 -0.5)"><switch><text text-anchor="middle" font-size="11px" font-family="&quot;Helvetica&quot;" fill="rgb(0, 0, 0)" y="785" x="1079">Subscribes for generated reports</text></switch></g></g></g></g><g data-cell-id="eQmtFs-PxKMfzNlPE_j_-41"><g><path stroke-miterlimit="10" stroke="#828282" fill="none" d="M 1285.4 740.86 L 1090 742 L 1090 610 L 916.12 610"></path><path stroke-miterlimit="10" stroke="#828282" fill="#828282" d="M 901.12 610 L 916.12 605 L 916.12 615 Z"></path></g><g data-cell-id="eQmtFs-PxKMfzNlPE_j_-47"><g><g transform="translate(-0.5 -0.5)"><switch><text text-anchor="middle" font-size="11px" font-family="&quot;Helvetica&quot;" fill="rgb(0, 0, 0)" y="595" x="1060">Publishes requests for reports</text></switch></g></g></g></g><g data-cell-id="eQmtFs-PxKMfzNlPE_j_-43"><g><g transform="translate(-0.5 -0.5)"><switch><text text-anchor="middle" font-size="11px" font-family="&quot;Helvetica&quot;" fill="rgb(0, 0, 0)" y="585" x="506">Subscribes for requests for report generation</text></switch></g></g></g><g data-cell-id="eQmtFs-PxKMfzNlPE_j_-49"><g><path stroke-miterlimit="10" stroke="#b85450" fill="#f8cecc" d="M 930 1085 C 930 1076.72 983.73 1070 1050 1070 C 1081.83 1070 1112.35 1071.58 1134.85 1074.39 C 1157.36 1077.21 1170 1081.02 1170 1085 L 1170 1175 C 1170 1183.28 1116.27 1190 1050 1190 C 983.73 1190 930 1183.28 930 1175 Z"></path><path stroke-miterlimit="10" stroke="#b85450" fill="none" d="M 1170 1085 C 1170 1093.28 1116.27 1100 1050 1100 C 983.73 1100 930 1093.28 930 1085"></path></g><g><g transform="translate(-0.5 -0.5)"><switch><text text-anchor="middle" font-size="12px" font-family="&quot;Helvetica&quot;" fill="rgb(0, 0, 0)" y="1147" x="1050">Cluster Metadata Database...</text></switch></g></g></g><g data-cell-id="eQmtFs-PxKMfzNlPE_j_-50"><g><path stroke-miterlimit="10" stroke="#d79b00" fill="#ffe6cc" d="M 1360 1194 C 1360 1185.72 1413.73 1179 1480 1179 C 1511.83 1179 1542.35 1180.58 1564.85 1183.39 C 1587.36 1186.21 1600 1190.02 1600 1194 L 1600 1284 C 1600 1292.28 1546.27 1299 1480 1299 C 1413.73 1299 1360 1292.28 1360 1284 Z"></path><path stroke-miterlimit="10" stroke="#d79b00" fill="none" d="M 1600 1194 C 1600 1202.28 1546.27 1209 1480 1209 C 1413.73 1209 1360 1202.28 1360 1194"></path></g><g><g transform="translate(-0.5 -0.5)"><switch><text text-anchor="middle" font-size="12px" font-family="&quot;Helvetica&quot;" fill="rgb(0, 0, 0)" y="1256" x="1480">Reports Database...</text></switch></g></g></g><g data-cell-id="eQmtFs-PxKMfzNlPE_j_-51"><g><path stroke-miterlimit="10" stroke="#d79b00" fill="#ffe6cc" d="M 1360 1344 C 1360 1335.72 1413.73 1329 1480 1329 C 1511.83 1329 1542.35 1330.58 1564.85 1333.39 C 1587.36 1336.21 1600 1340.02 1600 1344 L 1600 1434 C 1600 1442.28 1546.27 1449 1480 1449 C 1413.73 1449 1360 1442.28 1360 1434 Z"></path><path stroke-miterlimit="10" stroke="#d79b00" fill="none" d="M 1600 1344 C 1600 1352.28 1546.27 1359 1480 1359 C 1413.73 1359 1360 1352.28 1360 1344"></path></g><g><g transform="translate(-0.5 -0.5)"><switch><text text-anchor="middle" font-size="12px" font-family="&quot;Helvetica&quot;" fill="rgb(0, 0, 0)" y="1406" x="1480">Cluster metadata Database...</text></switch></g></g></g><g data-cell-id="eQmtFs-PxKMfzNlPE_j_-54"><g><path stroke-miterlimit="10" stroke="#828282" fill="none" d="M 828 1129.9 L 913.88 1130"></path><path stroke-miterlimit="10" stroke="#828282" fill="#828282" d="M 928.88 1130 L 913.88 1135 L 913.88 1125 Z"></path></g></g><g data-cell-id="eQmtFs-PxKMfzNlPE_j_-55"><g><path stroke-miterlimit="10" stroke="#828282" fill="none" d="M 232.2 720.34 L 230 780 L 471 780 L 471 853.88"></path><path stroke-miterlimit="10" stroke="#828282" fill="#828282" d="M 471 868.88 L 466 853.88 L 476 853.88 Z"></path></g><g data-cell-id="eQmtFs-PxKMfzNlPE_j_-89"><g><g transform="translate(-0.5 -0.5)"><switch><text text-anchor="middle" font-size="11px" font-family="&quot;Helvetica&quot;" fill="rgb(0, 0, 0)" y="787" x="329">Reads and writes reports from</text></switch></g></g></g></g><g data-cell-id="eQmtFs-PxKMfzNlPE_j_-56"><g><path stroke-miterlimit="10" stroke="#828282" fill="none" d="M 1342.6 853.4 L 1342.67 1239 L 1343.88 1239"></path><path stroke-miterlimit="10" stroke="#828282" fill="#828282" d="M 1358.88 1239 L 1343.88 1244 L 1343.88 1234 Z"></path></g><g><g transform="translate(-0.5 -0.5)"><switch><text text-anchor="middle" font-size="10px" font-family="&quot;Helvetica&quot;" fill="#404040" y="1173" x="1340">Reads and writes reports</text></switch></g></g></g><g data-cell-id="eQmtFs-PxKMfzNlPE_j_-57"><g><path stroke-miterlimit="10" stroke="#828282" fill="none" d="M 1310 830 L 1280 830 L 1280 1400.33 L 1346.76 1400.29"></path><path stroke-miterlimit="10" stroke="#828282" fill="#828282" d="M 1361.76 1400.28 L 1346.77 1405.29 L 1346.76 1395.29 Z"></path></g><g><g transform="translate(-0.5 -0.5)"><switch><text text-anchor="middle" font-size="10px" font-family="&quot;Helvetica&quot;" fill="#404040" y="1323" x="1220">Reads and writes current cluster metadata</text></switch></g></g></g><g data-cell-id="eQmtFs-PxKMfzNlPE_j_-58"><g><path stroke-miterlimit="10" stroke="#828282" fill="none" d="M 730 1220 L 730 1240 L 811 1240 L 811 1236 L 890 1236 L 890 1340 L 876.12 1340"></path><path stroke-miterlimit="10" stroke="#828282" fill="#828282" d="M 861.12 1340 L 876.12 1335 L 876.12 1345 Z"></path></g><g><g transform="translate(-0.5 -0.5)"><switch><text text-anchor="middle" font-size="10px" font-family="&quot;Helvetica&quot;" fill="#404040" y="1239" x="866">Subscribes for current cluster metadata</text></switch></g></g></g><g data-cell-id="eQmtFs-PxKMfzNlPE_j_-59"><g><path stroke-miterlimit="10" stroke="#828282" fill="none" d="M 574 1830 L 574 1370 L 603.88 1370"></path><path stroke-miterlimit="10" stroke="#828282" fill="#828282" d="M 618.88 1370 L 603.88 1375 L 603.88 1365 Z"></path></g><g data-cell-id="eQmtFs-PxKMfzNlPE_j_-60"><g><g transform="translate(-0.5 -0.5)"><switch><text text-anchor="middle" font-size="11px" font-family="&quot;Helvetica&quot;" fill="rgb(0, 0, 0)" y="1617" x="562">Produces current nodes state metadata</text></switch></g></g></g></g><g data-cell-id="eQmtFs-PxKMfzNlPE_j_-61"><g><path stroke-miterlimit="10" stroke="#828282" fill="none" d="M 390 1830 L 390 1340 L 603.88 1340"></path><path stroke-miterlimit="10" stroke="#828282" fill="#828282" d="M 618.88 1340 L 603.88 1345 L 603.88 1335 Z"></path></g></g><g data-cell-id="eQmtFs-PxKMfzNlPE_j_-64"><g><g transform="translate(-0.5 -0.5)"><switch><text text-anchor="middle" font-size="11px" font-family="&quot;Helvetica&quot;" fill="rgb(0, 0, 0)" y="1569" x="397">Produces current applications state metadata</text></switch></g></g></g><g data-cell-id="eQmtFs-PxKMfzNlPE_j_-65"><g><path stroke-miterlimit="10" stroke="#828282" fill="none" d="M 200 1130 L 200.15 1006.12"></path><path stroke-miterlimit="10" stroke="#828282" fill="#828282" d="M 200.01 991.12 L 205.15 1006.07 L 195.15 1006.16 Z"></path></g><g data-cell-id="eQmtFs-PxKMfzNlPE_j_-66"><g><g transform="translate(-0.5 -0.5)"><switch><text text-anchor="middle" font-size="11px" font-family="&quot;Helvetica&quot;" fill="rgb(0, 0, 0)" y="1063" x="232">Writes logs</text></switch></g></g></g></g><g data-cell-id="eQmtFs-PxKMfzNlPE_j_-67"><g><path stroke-miterlimit="10" stroke="#828282" fill="none" d="M 258.56 1912.32 L 40 1910 L 40 1340 L 63.88 1340"></path><path stroke-miterlimit="10" stroke="#828282" fill="#828282" d="M 78.88 1340 L 63.88 1345 L 63.88 1335 Z"></path></g><g data-cell-id="eQmtFs-PxKMfzNlPE_j_-68"><g><g transform="translate(-0.5 -0.5)"><switch><text text-anchor="middle" font-size="11px" font-family="&quot;Helvetica&quot;" fill="rgb(0, 0, 0)" y="1913" x="112">Publishes logs from applications</text></switch></g></g></g></g><g data-cell-id="eQmtFs-PxKMfzNlPE_j_-69"><g><path stroke-miterlimit="10" stroke="#828282" fill="none" d="M 560 1830 L 560 1771 L 398 1771 C 398 1760.6 382 1760.6 382 1771 L 382 1771 L 50 1771 L 50 1364.67 L 67 1364.69"></path><path stroke-miterlimit="10" stroke="#828282" fill="#828282" d="M 82 1364.72 L 66.99 1369.69 L 67.01 1359.69 Z"></path></g><g data-cell-id="eQmtFs-PxKMfzNlPE_j_-70"><g><g transform="translate(-0.5 -0.5)"><switch><text text-anchor="middle" font-size="11px" font-family="&quot;Helvetica&quot;" fill="rgb(0, 0, 0)" y="1776" x="197">Publishes logs collected from nodes</text></switch></g></g></g></g><g data-cell-id="eQmtFs-PxKMfzNlPE_j_-74"><g><path stroke-miterlimit="10" stroke="#828282" fill="none" d="M 581.2 1950.6 L 580 2010 L 300.67 2010 L 300.52 2077.96"></path><path stroke-miterlimit="10" stroke="#828282" fill="#828282" d="M 300.48 2092.96 L 295.52 2077.95 L 305.52 2077.97 Z"></path></g></g><g data-cell-id="eQmtFs-PxKMfzNlPE_j_-77"><g><path stroke-miterlimit="10" stroke="#828282" fill="none" d="M 410 1950 L 410 1964 L 572.93 1964 C 572.93 1953.6 588.93 1953.6 588.93 1964 L 588.93 1964 L 610 1964 L 610 2083.88"></path><path stroke-miterlimit="10" stroke="#828282" fill="#828282" d="M 610 2098.88 L 605 2083.88 L 615 2083.88 Z"></path></g></g><g data-cell-id="eQmtFs-PxKMfzNlPE_j_-79"><g><g transform="translate(-0.5 -0.5)"><switch><text text-anchor="middle" font-size="11px" font-family="&quot;Helvetica&quot;" fill="rgb(0, 0, 0)" y="2023" x="410">Uses for log file reading progress storage </text></switch></g></g></g><g data-cell-id="eQmtFs-PxKMfzNlPE_j_-80"><g><g transform="translate(-0.5 -0.5)"><switch><text text-anchor="middle" font-size="11px" font-family="&quot;Helvetica&quot;" fill="rgb(0, 0, 0)" y="2065" x="612">Gets application logs from</text></switch></g></g></g><g data-cell-id="eQmtFs-PxKMfzNlPE_j_-82"><g><path stroke-miterlimit="10" stroke="#828282" fill="none" d="M 300 1175 L 300 1180 L 350 1180 L 350 1340 L 336.12 1340"></path><path stroke-miterlimit="10" stroke="#828282" fill="#828282" d="M 321.12 1340 L 336.12 1335 L 336.12 1345 Z"></path></g><g data-cell-id="eQmtFs-PxKMfzNlPE_j_-83"><g><g transform="translate(-0.5 -0.5)"><switch><text text-anchor="middle" font-size="11px" font-family="&quot;Helvetica&quot;" fill="rgb(0, 0, 0)" y="1253" x="422">Subscribes for logs from cluster</text></switch></g></g></g></g><g data-cell-id="eQmtFs-PxKMfzNlPE_j_-85"><g><path stroke-miterlimit="10" stroke="rgb(0, 0, 0)" fill="none" d="M 200 1090 L 200 996.37"></path><path stroke-miterlimit="10" stroke="rgb(0, 0, 0)" fill="rgb(0, 0, 0)" d="M 200 991.12 L 203.5 998.12 L 200 996.37 L 196.5 998.12 Z"></path></g></g><g data-cell-id="eQmtFs-PxKMfzNlPE_j_-84"><g><path stroke-miterlimit="10" stroke="#6c8ebf" fill="#dae8fc" d="M 125 1132.5 L 144.93 1098.62 Q 150 1090 160 1090 L 240 1090 Q 250 1090 255.07 1098.62 L 294.93 1166.38 Q 300 1175 294.93 1183.62 L 255.07 1251.38 Q 250 1260 240 1260 L 160 1260 Q 150 1260 144.93 1251.38 L 105.07 1183.62 Q 100 1175 105.07 1166.38 Z"></path></g><g><g transform="translate(-0.5 -0.5)"><switch><text text-anchor="middle" font-size="12px" font-family="&quot;Helvetica&quot;" fill="rgb(0, 0, 0)" y="1179" x="200">Logs Ingestion...</text></switch></g></g></g><g data-cell-id="eQmtFs-PxKMfzNlPE_j_-86"><g><path stroke-miterlimit="10" stroke="#82b366" fill="#d5e8d4" d="M 115 592.5 L 134.93 558.62 Q 140 550 150 550 L 230 550 Q 240 550 245.07 558.62 L 284.93 626.38 Q 290 635 284.93 643.62 L 245.07 711.38 Q 240 720 230 720 L 150 720 Q 140 720 134.93 711.38 L 95.07 643.62 Q 90 635 95.07 626.38 Z"></path></g><g><g transform="translate(-0.5 -0.5)"><switch><text text-anchor="middle" font-size="12px" font-family="&quot;Helvetica&quot;" fill="rgb(0, 0, 0)" y="639" x="190">Reports service...</text></switch></g></g></g><g data-cell-id="eQmtFs-PxKMfzNlPE_j_-87"><g><path stroke-miterlimit="10" stroke="#828282" fill="none" d="M 170 720 L 170 853.88"></path><path stroke-miterlimit="10" stroke="#828282" fill="#828282" d="M 170 868.88 L 165 853.88 L 175 853.88 Z"></path></g></g><g data-cell-id="eQmtFs-PxKMfzNlPE_j_-88"><g><g transform="translate(-0.5 -0.5)"><switch><text text-anchor="middle" font-size="11px" font-family="&quot;Helvetica&quot;" fill="rgb(0, 0, 0)" y="795" x="132">Reads logs from</text></switch></g></g></g><g data-cell-id="eQmtFs-PxKMfzNlPE_j_-90"><g><path stroke-miterlimit="10" stroke="#b85450" fill="#f8cecc" d="M 655 1092.5 L 674.93 1058.62 Q 680 1050 690 1050 L 770 1050 Q 780 1050 785.07 1058.62 L 824.93 1126.38 Q 830 1135 824.93 1143.62 L 785.07 1211.38 Q 780 1220 770 1220 L 690 1220 Q 680 1220 674.93 1211.38 L 635.07 1143.62 Q 630 1135 635.07 1126.38 Z"></path></g><g><g transform="translate(-0.5 -0.5)"><switch><text text-anchor="middle" font-size="12px" font-family="&quot;Helvetica&quot;" fill="rgb(0, 0, 0)" y="1139" x="730">Metadata Service...</text></switch></g></g></g><g data-cell-id="eQmtFs-PxKMfzNlPE_j_-91"><g><path stroke-miterlimit="10" stroke="#d79b00" fill="#ffe6cc" d="M 1295 722.5 L 1314.93 688.62 Q 1320 680 1330 680 L 1410 680 Q 1420 680 1425.07 688.62 L 1464.93 756.38 Q 1470 765 1464.93 773.62 L 1425.07 841.38 Q 1420 850 1410 850 L 1330 850 Q 1320 850 1314.93 841.38 L 1275.07 773.62 Q 1270 765 1275.07 756.38 Z"></path></g><g><g transform="translate(-0.5 -0.5)"><switch><text text-anchor="middle" font-size="12px" font-family="&quot;Helvetica&quot;" fill="rgb(0, 0, 0)" y="769" x="1370">Management Service...</text></switch></g></g></g><g data-cell-id="eQmtFs-PxKMfzNlPE_j_-94"><g><path stroke-miterlimit="10" stroke="#828282" fill="none" d="M 1390.8 849.83 L 1390.67 934.33 L 1475 934.33 L 1474.97 1002.04"></path><path stroke-miterlimit="10" stroke="#828282" fill="#828282" d="M 1474.96 1017.04 L 1469.97 1002.04 L 1479.97 1002.04 Z"></path></g><g data-cell-id="eQmtFs-PxKMfzNlPE_j_-95"><g><g transform="translate(-0.5 -0.5)"><switch><text text-anchor="middle" font-size="11px" font-family="&quot;Helvetica&quot;" fill="rgb(0, 0, 0)" y="976" x="1461">Reads and writes user settings</text></switch></g></g></g></g><g data-cell-id="sUVE6fSOr7LZlt9xrACl-1"><g><path stroke-miterlimit="10" stroke="#828282" fill="none" d="M 1530 210 L 1530 319 L 1550 319 L 1550 118.67 L 1321.32 118.79"></path><path stroke-miterlimit="10" stroke="#828282" fill="#828282" d="M 1306.32 118.8 L 1321.32 113.79 L 1321.32 123.79 Z"></path></g><g data-cell-id="sUVE6fSOr7LZlt9xrACl-2"><g><g transform="translate(-0.5 -0.5)"><switch><text text-anchor="middle" font-size="11px" font-family="&quot;Helvetica&quot;" fill="rgb(0, 0, 0)" y="154" x="1562">Sends notifications to</text></switch></g></g></g></g><g data-cell-id="XUKh5Vn-OZLaP5JAbogg-2"><g style="filter: drop-shadow(rgba(0, 0, 0, 0.25) 2px 3px 2px);"><path stroke-miterlimit="10" stroke="#bac8d3" fill="#118acd" d="M 1250 468 C 1250 463.58 1253.58 460 1258 460 L 1482 460 C 1486.42 460 1490 463.58 1490 468 L 1490 612 C 1490 616.42 1486.42 620 1482 620 L 1258 620 C 1253.58 620 1250 616.42 1250 612 Z"></path><path stroke="none" fill="#bac8d3" d="M 1255 468 C 1255 466.34 1256.34 465 1258 465 L 1431 465 C 1432.66 465 1434 466.34 1434 468 L 1434 474 C 1434 475.66 1432.66 477 1431 477 L 1258 477 C 1256.34 477 1255 475.66 1255 474 Z M 1439 468 C 1439 466.34 1440.34 465 1442 465 L 1448 465 C 1449.66 465 1451 466.34 1451 468 L 1451 474 C 1451 475.66 1449.66 477 1448 477 L 1442 477 C 1440.34 477 1439 475.66 1439 474 Z M 1456 468 C 1456 466.34 1457.34 465 1459 465 L 1465 465 C 1466.66 465 1468 466.34 1468 468 L 1468 474 C 1468 475.66 1466.66 477 1465 477 L 1459 477 C 1457.34 477 1456 475.66 1456 474 Z M 1473 468 C 1473 466.34 1474.34 465 1476 465 L 1482 465 C 1483.66 465 1485 466.34 1485 468 L 1485 474 C 1485 475.66 1483.66 477 1482 477 L 1476 477 C 1474.34 477 1473 475.66 1473 474 Z M 1255 490 C 1255 485.58 1258.58 482 1263 482 L 1477 482 C 1481.42 482 1485 485.58 1485 490 L 1485 607 C 1485 611.42 1481.42 615 1477 615 L 1263 615 C 1258.58 615 1255 611.42 1255 607 Z"></path></g><g><g transform="translate(-0.5 -0.5)"><switch><text text-anchor="middle" font-size="12px" font-family="&quot;Helvetica&quot;" fill="rgb(0, 0, 0)" y="544" x="1370">Web App...</text></switch></g></g></g><g data-cell-id="84hmjW7imxVTDGzhKVNH-1"><g><path stroke-miterlimit="10" stroke="#d6b656" fill="#fff2cc" d="M 120 2105 C 120 2096.72 173.73 2090 240 2090 C 271.83 2090 302.35 2091.58 324.85 2094.39 C 347.36 2097.21 360 2101.02 360 2105 L 360 2195 C 360 2203.28 306.27 2210 240 2210 C 173.73 2210 120 2203.28 120 2195 Z"></path><path stroke-miterlimit="10" stroke="#d6b656" fill="none" d="M 360 2105 C 360 2113.28 306.27 2120 240 2120 C 173.73 2120 120 2113.28 120 2105"></path></g><g><g transform="translate(-0.5 -0.5)"><switch><text text-anchor="middle" font-size="12px" font-family="&quot;Helvetica&quot;" fill="rgb(0, 0, 0)" y="2167" x="240">Log reading progress storage...</text></switch></g></g></g><g data-cell-id="84hmjW7imxVTDGzhKVNH-2"><g><path stroke="none" fill="none" d="M 1400 1955 L 1400 1925 L 1580 1925 L 1580 1955"></path></g><g><g font-size="16px" font-weight="bold" font-family="&quot;Helvetica&quot;" fill="#4D4D4D"><text y="1944.5" x="1405.5">Legend</text></g></g><g data-cell-id="84hmjW7imxVTDGzhKVNH-3"><g></g><g data-cell-id="84hmjW7imxVTDGzhKVNH-4"><g><rect stroke="none" fill="#b1ddf0" height="30" width="180" y="1955" x="1400"></rect><path stroke-miterlimit="10" stroke-linecap="square" stroke="#10739e" fill="none" d="M 1400 1955 M 1580 1955 M 1580 1985 M 1400 1985"></path></g><g><g transform="translate(-0.5 -0.5)"><switch><text font-size="12px" font-family="&quot;Helvetica&quot;" fill="rgb(0, 0, 0)" y="1974" x="1412">Logs ingestion</text></switch></g></g></g></g><g data-cell-id="84hmjW7imxVTDGzhKVNH-5"><g></g><g data-cell-id="84hmjW7imxVTDGzhKVNH-6"><g><rect stroke="none" fill="#f8cecc" height="30" width="180" y="1985" x="1400"></rect><path stroke-miterlimit="10" stroke-linecap="square" stroke="#b85450" fill="none" d="M 1400 1985 M 1580 1985 M 1580 2015 M 1400 2015"></path></g><g><g transform="translate(-0.5 -0.5)"><switch><text font-size="12px" font-family="&quot;Helvetica&quot;" fill="rgb(0, 0, 0)" y="2004" x="1412">Cluster metadata service</text></switch></g></g></g></g><g data-cell-id="84hmjW7imxVTDGzhKVNH-7"><g></g><g data-cell-id="84hmjW7imxVTDGzhKVNH-8"><g><rect stroke="none" fill="#d5e8d4" height="30" width="180" y="2015" x="1400"></rect><path stroke-miterlimit="10" stroke-linecap="square" stroke="#82b366" fill="none" d="M 1400 2015 M 1580 2015 M 1580 2045 M 1400 2045"></path></g><g><g transform="translate(-0.5 -0.5)"><switch><text font-size="12px" font-family="&quot;Helvetica&quot;" fill="rgb(0, 0, 0)" y="2034" x="1412">Reports service</text></switch></g></g></g></g><g data-cell-id="84hmjW7imxVTDGzhKVNH-9"><g></g><g data-cell-id="84hmjW7imxVTDGzhKVNH-10"><g><rect stroke="none" fill="#ffe6cc" height="30" width="180" y="2045" x="1400"></rect><path stroke-miterlimit="10" stroke-linecap="square" stroke="#d79b00" fill="none" d="M 1400 2045 M 1580 2045 M 1580 2075 M 1400 2075"></path></g><g><g transform="translate(-0.5 -0.5)"><switch><text font-size="12px" font-family="&quot;Helvetica&quot;" fill="rgb(0, 0, 0)" y="2064" x="1412">Management service</text></switch></g></g></g></g></g><g data-cell-id="VLPuKDfgloUpU2F_N5Hz-1"><g><path transform="rotate(90,780,460)" stroke-miterlimit="10" stroke="#82b366" fill="#d5e8d4" d="M 720 355 C 720 346.72 746.86 340 780 340 C 795.91 340 811.17 341.58 822.43 344.39 C 833.68 347.21 840 351.02 840 355 L 840 565 C 840 573.28 813.14 580 780 580 C 746.86 580 720 573.28 720 565 Z"></path><path transform="rotate(90,780,460)" stroke-miterlimit="10" stroke="#82b366" fill="none" d="M 840 355 C 840 363.28 813.14 370 780 370 C 746.86 370 720 363.28 720 355"></path></g><g><g transform="translate(-0.5 -0.5)"><switch><text text-anchor="middle" font-size="12px" font-family="&quot;Helvetica&quot;" fill="rgb(0, 0, 0)" y="464" x="767">Report Request Failed tasks Queue...</text></switch></g></g></g><g data-cell-id="VLPuKDfgloUpU2F_N5Hz-2"><g><path stroke-miterlimit="10" stroke="rgb(0, 0, 0)" fill="none" d="M 229.4 551.02 L 229 460 L 653.63 460"></path><path stroke-miterlimit="10" stroke="rgb(0, 0, 0)" fill="rgb(0, 0, 0)" d="M 658.88 460 L 651.88 463.5 L 653.63 460 L 651.88 456.5 Z"></path></g><g data-cell-id="VLPuKDfgloUpU2F_N5Hz-3"><g><g transform="translate(-0.5 -0.5)"><switch><text text-anchor="middle" font-size="11px" font-family="&quot;Helvetica&quot;" fill="rgb(0, 0, 0)" y="485" x="430">Publishes report failed requests in case of errors</text></switch></g></g></g></g><g data-cell-id="VLPuKDfgloUpU2F_N5Hz-4"><g><path stroke-miterlimit="10" stroke="rgb(0, 0, 0)" fill="none" d="M 1312.8 700.57 L 1180 701 L 1180 460 L 906.37 460"></path><path stroke-miterlimit="10" stroke="rgb(0, 0, 0)" fill="rgb(0, 0, 0)" d="M 901.12 460 L 908.12 456.5 L 906.37 460 L 908.12 463.5 Z"></path></g><g data-cell-id="VLPuKDfgloUpU2F_N5Hz-5"><g><g transform="translate(-0.5 -0.5)"><switch><text text-anchor="middle" font-size="11px" font-family="&quot;Helvetica&quot;" fill="rgb(0, 0, 0)" y="454" x="1102">Subscribes for report generation errors</text></switch></g></g></g></g><g data-cell-id="PIg1etdeGoSK7Yj7hdCs-1"><g><rect stroke="none" fill="none" height="40" width="40" y="1370" x="680"></rect></g><g><g transform="translate(-0.5 -0.5)"><switch><text font-size="12px" font-family="&quot;Helvetica&quot;" fill="rgb(0, 0, 0)" y="1389" x="682">&nbsp;</text></switch></g></g></g></g></g></g></svg>