<svg viewBox="-0.5 -0.5 1171 2801" height="2801px" width="1171px" version="1.1" xmlns:xlink="http://www.w3.org/1999/xlink" xmlns="http://www.w3.org/2000/svg"><defs></defs><g><g data-cell-id="0"><g data-cell-id="1"><g data-cell-id="VblmflZQPWKM-_h5zKfY-1"><g><rect stroke-dasharray="8 4" stroke="#666666" fill="none" ry="10" rx="10" height="1990" width="1140" y="250" x="0"></rect></g><g><g transform="translate(-0.5 -0.5)"><switch><text font-size="11px" font-family="&quot;Helvetica&quot;" fill="#333333" y="2229" x="10">Magpie Monitor Cloud...</text></switch></g></g></g><g data-cell-id="VblmflZQPWKM-_h5zKfY-2"><g><rect stroke-dasharray="8 4" stroke="#666666" fill="none" ry="10" rx="10" height="410" width="341" y="1420" x="751"></rect></g><g><g transform="translate(-0.5 -0.5)"><switch><text font-size="11px" font-family="&quot;Helvetica&quot;" fill="#333333" y="1819" x="761">magpiemonitor-cluster-metadata-**...</text></switch></g></g></g><g data-cell-id="VblmflZQPWKM-_h5zKfY-3"><g><path stroke-miterlimit="10" stroke="#b85450" fill="#f8cecc" d="M 811 1645 C 811 1636.72 864.73 1630 931 1630 C 962.83 1630 993.35 1631.58 1015.85 1634.39 C 1038.36 1637.21 1051 1641.02 1051 1645 L 1051 1735 C 1051 1743.28 997.27 1750 931 1750 C 864.73 1750 811 1743.28 811 1735 Z"></path><path stroke-miterlimit="10" stroke="#b85450" fill="none" d="M 1051 1645 C 1051 1653.28 997.27 1660 931 1660 C 864.73 1660 811 1653.28 811 1645"></path></g><g><g transform="translate(-0.5 -0.5)"><switch><text text-anchor="middle" font-size="12px" font-family="&quot;Helvetica&quot;" fill="rgb(0, 0, 0)" y="1707" x="931">Cluster metadata database...</text></switch></g></g></g><g data-cell-id="VblmflZQPWKM-_h5zKfY-4"><g><rect stroke="#b85450" fill="#f8cecc" ry="12" rx="12" height="120" width="240" y="1470" x="811"></rect></g><g><g transform="translate(-0.5 -0.5)"><switch><text text-anchor="middle" font-size="11px" font-family="&quot;Helvetica&quot;" fill="rgb(0, 0, 0)" y="1533" x="931">Cluster metadata service...</text></switch></g></g></g><g data-cell-id="VblmflZQPWKM-_h5zKfY-5"><g><rect stroke-dasharray="8 4" stroke="#666666" fill="none" ry="10" rx="10" height="330" width="300" y="1450" x="771"></rect></g><g><g transform="translate(-0.5 -0.5)"><switch><text font-size="11px" font-family="&quot;Helvetica&quot;" fill="#333333" y="1769" x="781">Docker...</text></switch></g></g></g><g data-cell-id="VblmflZQPWKM-_h5zKfY-6"><g><rect stroke-dasharray="8 4" stroke="#666666" fill="none" ry="10" rx="10" height="420" width="341" y="610" x="40"></rect></g><g><g transform="translate(-0.5 -0.5)"><switch><text font-size="11px" font-family="&quot;Helvetica&quot;" fill="#333333" y="1019" x="50">magpiemonitor-reports-**...</text></switch></g></g></g><g data-cell-id="VblmflZQPWKM-_h5zKfY-7"><g><path stroke-miterlimit="10" stroke="#82b366" fill="#d5e8d4" d="M 100 805 C 100 796.72 153.73 790 220 790 C 251.83 790 282.35 791.58 304.85 794.39 C 327.36 797.21 340 801.02 340 805 L 340 895 C 340 903.28 286.27 910 220 910 C 153.73 910 100 903.28 100 895 Z"></path><path stroke-miterlimit="10" stroke="#82b366" fill="none" d="M 340 805 C 340 813.28 286.27 820 220 820 C 153.73 820 100 813.28 100 805"></path></g><g><g transform="translate(-0.5 -0.5)"><switch><text text-anchor="middle" font-size="12px" font-family="&quot;Helvetica&quot;" fill="rgb(0, 0, 0)" y="867" x="220">Reports database...</text></switch></g></g></g><g data-cell-id="VblmflZQPWKM-_h5zKfY-8"><g><rect stroke="#82b366" fill="#d5e8d4" ry="12" rx="12" height="120" width="240" y="640" x="100"></rect></g><g><g transform="translate(-0.5 -0.5)"><switch><text text-anchor="middle" font-size="11px" font-family="&quot;Helvetica&quot;" fill="rgb(0, 0, 0)" y="703" x="220">Reports service...</text></switch></g></g></g><g data-cell-id="VblmflZQPWKM-_h5zKfY-9"><g><rect stroke-dasharray="8 4" stroke="#666666" fill="none" ry="10" rx="10" height="330" width="300" y="620" x="60"></rect></g><g><g transform="translate(-0.5 -0.5)"><switch><text font-size="11px" font-family="&quot;Helvetica&quot;" fill="#333333" y="939" x="70">Docker...</text></switch></g></g></g><g data-cell-id="VblmflZQPWKM-_h5zKfY-10"><g><rect stroke-dasharray="8 4" stroke="#666666" fill="none" ry="10" rx="10" height="690" width="337.5" y="620" x="782.5"></rect></g><g><g transform="translate(-0.5 -0.5)"><switch><text font-size="11px" font-family="&quot;Helvetica&quot;" fill="#333333" y="1299" x="793">magpiemonitor-management-service-**...</text></switch></g></g></g><g data-cell-id="VblmflZQPWKM-_h5zKfY-11"><g><path stroke-miterlimit="10" stroke="#d79b00" fill="#ffe6cc" d="M 828.25 835 C 828.25 826.72 881.98 820 948.25 820 C 980.08 820 1010.6 821.58 1033.1 824.39 C 1055.61 827.21 1068.25 831.02 1068.25 835 L 1068.25 925 C 1068.25 933.28 1014.52 940 948.25 940 C 881.98 940 828.25 933.28 828.25 925 Z"></path><path stroke-miterlimit="10" stroke="#d79b00" fill="none" d="M 1068.25 835 C 1068.25 843.28 1014.52 850 948.25 850 C 881.98 850 828.25 843.28 828.25 835"></path></g><g><g transform="translate(-0.5 -0.5)"><switch><text text-anchor="middle" font-size="12px" font-family="&quot;Helvetica&quot;" fill="rgb(0, 0, 0)" y="897" x="948">Reports database...</text></switch></g></g></g><g data-cell-id="VblmflZQPWKM-_h5zKfY-12"><g><rect stroke="#d79b00" fill="#ffe6cc" ry="12" rx="12" height="120" width="240" y="660" x="828.75"></rect></g><g><g transform="translate(-0.5 -0.5)"><switch><text text-anchor="middle" font-size="11px" font-family="&quot;Helvetica&quot;" fill="rgb(0, 0, 0)" y="723" x="949">Management Service...</text></switch></g></g></g><g data-cell-id="VblmflZQPWKM-_h5zKfY-13"><g><rect stroke-dasharray="8 4" stroke="#666666" fill="none" ry="10" rx="10" height="610" width="300" y="640" x="798.25"></rect></g><g><g transform="translate(-0.5 -0.5)"><switch><text font-size="11px" font-family="&quot;Helvetica&quot;" fill="#333333" y="1239" x="808">Docker...</text></switch></g></g></g><g data-cell-id="VblmflZQPWKM-_h5zKfY-14"><g><rect stroke-dasharray="8 4" stroke="#666666" fill="none" ry="10" rx="10" height="300" width="341" y="1530" x="170"></rect></g><g><g transform="translate(-0.5 -0.5)"><switch><text font-size="11px" font-family="&quot;Helvetica&quot;" fill="#333333" y="1819" x="180">magpiemonitor-logs-ingestion-**...</text></switch></g></g></g><g data-cell-id="VblmflZQPWKM-_h5zKfY-15"><g><path stroke-miterlimit="10" stroke="#6c8ebf" fill="#dae8fc" d="M 69.75 1275 C 69.75 1266.72 123.48 1260 189.75 1260 C 221.58 1260 252.1 1261.58 274.6 1264.39 C 297.11 1267.21 309.75 1271.02 309.75 1275 L 309.75 1365 C 309.75 1373.28 256.02 1380 189.75 1380 C 123.48 1380 69.75 1373.28 69.75 1365 Z"></path><path stroke-miterlimit="10" stroke="#6c8ebf" fill="none" d="M 309.75 1275 C 309.75 1283.28 256.02 1290 189.75 1290 C 123.48 1290 69.75 1283.28 69.75 1275"></path></g><g><g transform="translate(-0.5 -0.5)"><switch><text text-anchor="middle" font-size="12px" font-family="&quot;Helvetica&quot;" fill="rgb(0, 0, 0)" y="1337" x="190">Logs Storage...</text></switch></g></g></g><g data-cell-id="VblmflZQPWKM-_h5zKfY-16"><g><rect stroke="#6c8ebf" fill="#dae8fc" ry="12" rx="12" height="120" width="240" y="1590" x="220.5"></rect></g><g><g transform="translate(-0.5 -0.5)"><switch><text text-anchor="middle" font-size="11px" font-family="&quot;Helvetica&quot;" fill="rgb(0, 0, 0)" y="1653" x="341">Logs ingestion service...</text></switch></g></g></g><g data-cell-id="VblmflZQPWKM-_h5zKfY-17"><g><rect stroke-dasharray="8 4" stroke="#666666" fill="none" ry="10" rx="10" height="230" width="300" y="1550" x="190"></rect></g><g><g transform="translate(-0.5 -0.5)"><switch><text font-size="11px" font-family="&quot;Helvetica&quot;" fill="#333333" y="1769" x="200">Docker...</text></switch></g></g></g><g data-cell-id="VblmflZQPWKM-_h5zKfY-19"><g><rect stroke-dasharray="8 4" stroke="#666666" fill="none" ry="10" rx="10" height="300" width="341" y="1910" x="410"></rect></g><g><g transform="translate(-0.5 -0.5)"><switch><text font-size="11px" font-family="&quot;Helvetica&quot;" fill="#333333" y="2199" x="420">magpiemonitor-external-queque-**...</text></switch></g></g></g><g data-cell-id="VblmflZQPWKM-_h5zKfY-22"><g><rect stroke-dasharray="8 4" stroke="#666666" fill="none" ry="10" rx="10" height="230" width="300" y="1930" x="430"></rect></g><g><g transform="translate(-0.5 -0.5)"><switch><text font-size="11px" font-family="&quot;Helvetica&quot;" fill="#333333" y="2149" x="440">Docker...</text></switch></g></g></g><g data-cell-id="VblmflZQPWKM-_h5zKfY-23"><g><path transform="rotate(90,593.5,2020)" stroke-miterlimit="10" stroke="#23445d" fill="#bac8d3" d="M 533.5 1915 C 533.5 1906.72 560.36 1900 593.5 1900 C 609.41 1900 624.67 1901.58 635.93 1904.39 C 647.18 1907.21 653.5 1911.02 653.5 1915 L 653.5 2125 C 653.5 2133.28 626.64 2140 593.5 2140 C 560.36 2140 533.5 2133.28 533.5 2125 Z"></path><path transform="rotate(90,593.5,2020)" stroke-miterlimit="10" stroke="#23445d" fill="none" d="M 653.5 1915 C 653.5 1923.28 626.64 1930 593.5 1930 C 560.36 1930 533.5 1923.28 533.5 1915"></path></g><g><g transform="translate(-0.5 -0.5)"><switch><text text-anchor="middle" font-size="12px" font-family="&quot;Helvetica&quot;" fill="rgb(0, 0, 0)" y="2024" x="580">External Queue...</text></switch></g></g></g><g data-cell-id="VblmflZQPWKM-_h5zKfY-24"><g><rect stroke-dasharray="8 4" stroke="#666666" fill="none" ry="10" rx="10" height="420" width="601.5" y="2380" x="428.5"></rect></g><g><g transform="translate(-0.5 -0.5)"><switch><text font-size="11px" font-family="&quot;Helvetica&quot;" fill="#333333" y="2789" x="439">Clients cluster...</text></switch></g></g></g><g data-cell-id="VblmflZQPWKM-_h5zKfY-25"><g><rect stroke="#d6b656" fill="#fff2cc" ry="12" rx="12" height="120" width="240" y="2570" x="478.5"></rect></g><g><g transform="translate(-0.5 -0.5)"><switch><text text-anchor="middle" font-size="11px" font-family="&quot;Helvetica&quot;" fill="rgb(0, 0, 0)" y="2633" x="599">Pod Collector Agent...</text></switch></g></g></g><g data-cell-id="VblmflZQPWKM-_h5zKfY-26"><g><rect stroke-dasharray="8 4" stroke="#666666" fill="none" ry="10" rx="10" height="340" width="546.5" y="2410" x="463.5"></rect></g><g><g transform="translate(-0.5 -0.5)"><switch><text font-size="11px" font-family="&quot;Helvetica&quot;" fill="#333333" y="2739" x="474">Kubernetes...</text></switch></g></g></g><g data-cell-id="VblmflZQPWKM-_h5zKfY-27"><g><rect stroke="#d6b656" fill="#fff2cc" ry="12" rx="12" height="120" width="240" y="2420" x="478.5"></rect></g><g><g transform="translate(-0.5 -0.5)"><switch><text text-anchor="middle" font-size="11px" font-family="&quot;Helvetica&quot;" fill="rgb(0, 0, 0)" y="2483" x="599">Node Collector Agent...</text></switch></g></g></g><g data-cell-id="VblmflZQPWKM-_h5zKfY-28"><g><rect stroke-dasharray="8 4" stroke="#666666" fill="none" ry="10" rx="10" height="300" width="341" y="1080" x="423.5"></rect></g><g><g transform="translate(-0.5 -0.5)"><switch><text font-size="11px" font-family="&quot;Helvetica&quot;" fill="#333333" y="1369" x="434">magpiemonitor-internal-queue-**...</text></switch></g></g></g><g data-cell-id="VblmflZQPWKM-_h5zKfY-29"><g><rect stroke-dasharray="8 4" stroke="#666666" fill="none" ry="10" rx="10" height="230" width="300" y="1100" x="443.5"></rect></g><g><g transform="translate(-0.5 -0.5)"><switch><text font-size="11px" font-family="&quot;Helvetica&quot;" fill="#333333" y="1319" x="454">Docker...</text></switch></g></g></g><g data-cell-id="VblmflZQPWKM-_h5zKfY-30"><g><path transform="rotate(90,594,1215)" stroke-miterlimit="10" stroke="#23445d" fill="#bac8d3" d="M 534 1110 C 534 1101.72 560.86 1095 594 1095 C 609.91 1095 625.17 1096.58 636.43 1099.39 C 647.68 1102.21 654 1106.02 654 1110 L 654 1320 C 654 1328.28 627.14 1335 594 1335 C 560.86 1335 534 1328.28 534 1320 Z"></path><path transform="rotate(90,594,1215)" stroke-miterlimit="10" stroke="#23445d" fill="none" d="M 654 1110 C 654 1118.28 627.14 1125 594 1125 C 560.86 1125 534 1118.28 534 1110"></path></g><g><g transform="translate(-0.5 -0.5)"><switch><text text-anchor="middle" font-size="12px" font-family="&quot;Helvetica&quot;" fill="rgb(0, 0, 0)" y="1219" x="581">Internal Messages Queue...</text></switch></g></g></g><g data-cell-id="VblmflZQPWKM-_h5zKfY-31"><g><path stroke-miterlimit="10" stroke="#828282" fill="none" d="M 340 700 L 423 700 L 423 1185.67 L 464.12 1185.53"></path><path stroke-miterlimit="10" stroke="#828282" fill="#828282" d="M 479.12 1185.48 L 464.14 1190.53 L 464.11 1180.53 Z"></path></g><g><g transform="translate(-0.5 -0.5)"><switch><text text-anchor="middle" font-size="10px" font-family="&quot;Helvetica&quot;" fill="#404040" y="987" x="523">Publishes generated reports and subscribes for r...</text></switch></g></g></g><g data-cell-id="VblmflZQPWKM-_h5zKfY-35"><g><path stroke-miterlimit="10" stroke="#828282" fill="none" d="M 478.5 2480 L 330 2480 L 330 2030 L 453.88 2030"></path><path stroke-miterlimit="10" stroke="#828282" fill="#828282" d="M 468.88 2030 L 453.88 2035 L 453.88 2025 Z"></path></g><g><g transform="translate(-0.5 -0.5)"><switch><text text-anchor="middle" font-size="10px" font-family="&quot;Helvetica&quot;" fill="#404040" y="2463" x="379">Publishes node logs and metadata</text></switch></g></g></g><g data-cell-id="VblmflZQPWKM-_h5zKfY-36"><g><path stroke-miterlimit="10" stroke="#828282" fill="none" d="M 488.96 2630 L 290 2630 L 290 2010 L 457.38 2010"></path><path stroke-miterlimit="10" stroke="#828282" fill="#828282" d="M 472.38 2010 L 457.38 2015 L 457.38 2005 Z"></path></g><g><g transform="translate(-0.5 -0.5)"><switch><text text-anchor="middle" font-size="10px" font-family="&quot;Helvetica&quot;" fill="#404040" y="2622" x="280">Publishes application logs and metadata</text></switch></g></g></g><g data-cell-id="VblmflZQPWKM-_h5zKfY-37"><g><path stroke-miterlimit="10" stroke="#828282" fill="none" d="M 223 1625 L 80 1625 L 80 1940 L 780 1940 L 780 2009.33 L 727.7 2009.32"></path><path stroke-miterlimit="10" stroke="#828282" fill="#828282" d="M 712.7 2009.32 L 727.7 2004.32 L 727.7 2014.32 Z"></path></g><g><g transform="translate(-0.5 -0.5)"><switch><text text-anchor="middle" font-size="10px" font-family="&quot;Helvetica&quot;" fill="#404040" y="1943" x="269">Subscribes for cluster logs</text></switch></g></g></g><g data-cell-id="VblmflZQPWKM-_h5zKfY-38"><g><path stroke-miterlimit="10" stroke="#828282" fill="none" d="M 1048.84 1540.8 L 1110 1540.67 L 1110 2044.67 L 726.74 2044.6"></path><path stroke-miterlimit="10" stroke="#828282" fill="#828282" d="M 711.74 2044.6 L 726.74 2039.6 L 726.74 2049.6 Z"></path></g><g data-cell-id="VblmflZQPWKM-_h5zKfY-39"><g><g transform="translate(-0.5 -0.5)"><switch><text text-anchor="middle" font-size="11px" font-family="&quot;Helvetica&quot;" fill="rgb(0, 0, 0)" y="2049" x="947">Subscribes for cluster metadata</text></switch></g></g></g></g><g data-cell-id="VblmflZQPWKM-_h5zKfY-46"><g><path stroke-miterlimit="10" stroke="#828282" fill="none" d="M 931 1470 L 931 1410 L 340 1410 L 340 1249.33 L 461.48 1249.43"></path><path stroke-miterlimit="10" stroke="#828282" fill="#828282" d="M 476.48 1249.44 L 461.48 1254.43 L 461.49 1244.43 Z"></path></g><g><g transform="translate(-0.5 -0.5)"><switch><text text-anchor="middle" font-size="10px" font-family="&quot;Helvetica&quot;" fill="#404040" y="1423" x="641">Publishes updated cluster metadata</text></switch></g></g></g><g data-cell-id="VblmflZQPWKM-_h5zKfY-47"><g><path stroke-miterlimit="10" stroke="#828282" fill="none" d="M 828.75 720 L 750 720 L 750 1215 L 730.12 1215"></path><path stroke-miterlimit="10" stroke="#828282" fill="#828282" d="M 715.12 1215 L 730.12 1210 L 730.12 1220 Z"></path></g><g><g transform="translate(-0.5 -0.5)"><switch><text text-anchor="middle" font-size="10px" font-family="&quot;Helvetica&quot;" fill="#404040" y="794" x="680">Subscribes for updated cluster metadata and gene...</text></switch></g></g></g><g data-cell-id="VblmflZQPWKM-_h5zKfY-48"><g><path stroke-miterlimit="10" stroke="#d79b00" fill="#ffe6cc" d="M 828.75 975 C 828.75 966.72 882.48 960 948.75 960 C 980.58 960 1011.1 961.58 1033.6 964.39 C 1056.11 967.21 1068.75 971.02 1068.75 975 L 1068.75 1065 C 1068.75 1073.28 1015.02 1080 948.75 1080 C 882.48 1080 828.75 1073.28 828.75 1065 Z"></path><path stroke-miterlimit="10" stroke="#d79b00" fill="none" d="M 1068.75 975 C 1068.75 983.28 1015.02 990 948.75 990 C 882.48 990 828.75 983.28 828.75 975"></path></g><g><g transform="translate(-0.5 -0.5)"><switch><text text-anchor="middle" font-size="12px" font-family="&quot;Helvetica&quot;" fill="rgb(0, 0, 0)" y="1037" x="949">Cluster metadata database...</text></switch></g></g></g><g data-cell-id="VblmflZQPWKM-_h5zKfY-49"><g><path stroke-miterlimit="10" stroke="#d79b00" fill="#ffe6cc" d="M 828.75 1105 C 828.75 1096.72 882.48 1090 948.75 1090 C 980.58 1090 1011.1 1091.58 1033.6 1094.39 C 1056.11 1097.21 1068.75 1101.02 1068.75 1105 L 1068.75 1195 C 1068.75 1203.28 1015.02 1210 948.75 1210 C 882.48 1210 828.75 1203.28 828.75 1195 Z"></path><path stroke-miterlimit="10" stroke="#d79b00" fill="none" d="M 1068.75 1105 C 1068.75 1113.28 1015.02 1120 948.75 1120 C 882.48 1120 828.75 1113.28 828.75 1105"></path></g><g><g transform="translate(-0.5 -0.5)"><switch><text text-anchor="middle" font-size="12px" font-family="&quot;Helvetica&quot;" fill="rgb(0, 0, 0)" y="1167" x="949">User settings database...</text></switch></g></g></g><g data-cell-id="VblmflZQPWKM-_h5zKfY-50"><g><rect stroke-dasharray="8 4" stroke="#666666" fill="none" ry="10" rx="10" height="240" width="341" y="310" x="381"></rect></g><g><g transform="translate(-0.5 -0.5)"><switch><text font-size="11px" font-family="&quot;Helvetica&quot;" fill="#333333" y="539" x="391">magpiemonitor-client-**...</text></switch></g></g></g><g data-cell-id="VblmflZQPWKM-_h5zKfY-52"><g><rect stroke="#23445d" fill="#bac8d3" ry="12" rx="12" height="120" width="240" y="340" x="441"></rect></g><g><g transform="translate(-0.5 -0.5)"><switch><text text-anchor="middle" font-size="11px" font-family="&quot;Helvetica&quot;" fill="rgb(0, 0, 0)" y="403" x="561">Client Web server...</text></switch></g></g></g><g data-cell-id="VblmflZQPWKM-_h5zKfY-53"><g><rect stroke-dasharray="8 4" stroke="#666666" fill="none" ry="10" rx="10" height="180" width="300" y="320" x="401"></rect></g><g><g transform="translate(-0.5 -0.5)"><switch><text font-size="11px" font-family="&quot;Helvetica&quot;" fill="#333333" y="489" x="411">Docker...</text></switch></g></g></g><g data-cell-id="VblmflZQPWKM-_h5zKfY-54"><g><path stroke-miterlimit="10" stroke="#0e7dad" fill="#118acd" d="M 837.25 18 C 837.25 13.58 840.83 10 845.25 10 L 1069.25 10 C 1073.67 10 1077.25 13.58 1077.25 18 L 1077.25 162 C 1077.25 166.42 1073.67 170 1069.25 170 L 845.25 170 C 840.83 170 837.25 166.42 837.25 162 Z"></path><path stroke="none" fill="#bac8d3" d="M 842.25 18 C 842.25 16.34 843.59 15 845.25 15 L 1018.25 15 C 1019.91 15 1021.25 16.34 1021.25 18 L 1021.25 24 C 1021.25 25.66 1019.91 27 1018.25 27 L 845.25 27 C 843.59 27 842.25 25.66 842.25 24 Z M 1026.25 18 C 1026.25 16.34 1027.59 15 1029.25 15 L 1035.25 15 C 1036.91 15 1038.25 16.34 1038.25 18 L 1038.25 24 C 1038.25 25.66 1036.91 27 1035.25 27 L 1029.25 27 C 1027.59 27 1026.25 25.66 1026.25 24 Z M 1043.25 18 C 1043.25 16.34 1044.59 15 1046.25 15 L 1052.25 15 C 1053.91 15 1055.25 16.34 1055.25 18 L 1055.25 24 C 1055.25 25.66 1053.91 27 1052.25 27 L 1046.25 27 C 1044.59 27 1043.25 25.66 1043.25 24 Z M 1060.25 18 C 1060.25 16.34 1061.59 15 1063.25 15 L 1069.25 15 C 1070.91 15 1072.25 16.34 1072.25 18 L 1072.25 24 C 1072.25 25.66 1070.91 27 1069.25 27 L 1063.25 27 C 1061.59 27 1060.25 25.66 1060.25 24 Z M 842.25 40 C 842.25 35.58 845.83 32 850.25 32 L 1064.25 32 C 1068.67 32 1072.25 35.58 1072.25 40 L 1072.25 157 C 1072.25 161.42 1068.67 165 1064.25 165 L 850.25 165 C 845.83 165 842.25 161.42 842.25 157 Z"></path></g><g><g transform="translate(-0.5 -0.5)"><switch><text text-anchor="middle" font-size="12px" font-family="&quot;Helvetica&quot;" fill="rgb(0, 0, 0)" y="94" x="957">Web App...</text></switch></g></g></g><g data-cell-id="VblmflZQPWKM-_h5zKfY-55"><g><rect stroke-dasharray="8 4" stroke="#666666" fill="none" ry="10" rx="10" height="230" width="305.5" y="0" x="800.25"></rect></g><g><g transform="translate(-0.5 -0.5)"><switch><text font-size="11px" font-family="&quot;Helvetica&quot;" fill="#333333" y="219" x="810">Web browser...</text></switch></g></g></g><g data-cell-id="VblmflZQPWKM-_h5zKfY-59"><g><rect stroke-dasharray="8 4" stroke="#666666" fill="none" ry="10" rx="10" height="240" width="341" y="310" x="766"></rect></g><g><g transform="translate(-0.5 -0.5)"><switch><text font-size="11px" font-family="&quot;Helvetica&quot;" fill="#333333" y="539" x="776">magpiemonitor-proxy-**...</text></switch></g></g></g><g data-cell-id="VblmflZQPWKM-_h5zKfY-60"><g><rect stroke="#23445d" fill="#bac8d3" ry="12" rx="12" height="120" width="240" y="340" x="826"></rect></g><g><g transform="translate(-0.5 -0.5)"><switch><text text-anchor="middle" font-size="11px" font-family="&quot;Helvetica&quot;" fill="rgb(0, 0, 0)" y="403" x="946">Reverse Proxy...</text></switch></g></g></g><g data-cell-id="VblmflZQPWKM-_h5zKfY-61"><g><rect stroke-dasharray="8 4" stroke="#666666" fill="none" ry="10" rx="10" height="180" width="300" y="320" x="786"></rect></g><g><g transform="translate(-0.5 -0.5)"><switch><text font-size="11px" font-family="&quot;Helvetica&quot;" fill="#333333" y="489" x="796">Docker...</text></switch></g></g></g><g data-cell-id="VblmflZQPWKM-_h5zKfY-62"><g><path stroke-miterlimit="10" stroke="#828282" fill="none" d="M 949.57 167.28 L 949.67 255 L 930 255 L 929.93 325.08"></path><path stroke-miterlimit="10" stroke="#828282" fill="#828282" d="M 929.92 340.08 L 924.93 325.08 L 934.93 325.09 Z"></path></g><g data-cell-id="VblmflZQPWKM-_h5zKfY-63"><g><g transform="translate(-0.5 -0.5)"><switch><text text-anchor="middle" font-size="11px" font-family="&quot;Helvetica&quot;" fill="rgb(0, 0, 0)" y="259" x="939">Fetches website static files and makes call to management service</text></switch></g></g></g></g><g data-cell-id="VblmflZQPWKM-_h5zKfY-64"><g><path stroke-miterlimit="10" stroke="#828282" fill="none" d="M 825.52 414.28 L 698.56 414.28"></path><path stroke-miterlimit="10" stroke="#828282" fill="#828282" d="M 683.56 414.28 L 698.56 409.28 L 698.56 419.28 Z"></path></g><g data-cell-id="VblmflZQPWKM-_h5zKfY-65"><g><g transform="translate(-0.5 -0.5)"><switch><text text-anchor="middle" font-size="11px" font-family="&quot;Helvetica&quot;" fill="rgb(0, 0, 0)" y="405" x="757">Proxies traffic to</text></switch></g></g></g></g><g data-cell-id="VblmflZQPWKM-_h5zKfY-66"><g><path stroke-miterlimit="10" stroke="#828282" fill="none" d="M 996.88 457.36 L 1013 457.33 L 1013 643.88"></path><path stroke-miterlimit="10" stroke="#828282" fill="#828282" d="M 1013 658.88 L 1008 643.88 L 1018 643.88 Z"></path></g><g data-cell-id="VblmflZQPWKM-_h5zKfY-67"><g><g transform="translate(-0.5 -0.5)"><switch><text text-anchor="middle" font-size="11px" font-family="&quot;Helvetica&quot;" fill="rgb(0, 0, 0)" y="597" x="1052">Proxies traffic to</text></switch></g></g></g></g><g data-cell-id="VblmflZQPWKM-_h5zKfY-68"><g><path stroke-miterlimit="10" stroke="#828282" fill="none" d="M 236.8 760.12 L 236.73 783.88"></path><path stroke-miterlimit="10" stroke="#828282" fill="#828282" d="M 236.98 798.88 L 231.73 783.97 L 241.73 783.8 Z"></path></g><g data-cell-id="VblmflZQPWKM-_h5zKfY-69"><g><g transform="translate(-0.5 -0.5)"><switch><text text-anchor="middle" font-size="11px" font-family="&quot;Helvetica&quot;" fill="rgb(0, 0, 0)" y="782" x="291">Reads and writes to</text></switch></g></g></g></g><g data-cell-id="VblmflZQPWKM-_h5zKfY-70"><g><path stroke-miterlimit="10" stroke="#828282" fill="none" d="M 1071 730 L 1100 730 L 1100 890 L 1086.05 889.98"></path><path stroke-miterlimit="10" stroke="#828282" fill="#828282" d="M 1071.05 889.96 L 1086.05 884.98 L 1086.04 894.98 Z"></path></g></g><g data-cell-id="VblmflZQPWKM-_h5zKfY-72"><g><path stroke-miterlimit="10" stroke="#828282" fill="none" d="M 1069.95 729.96 L 1100 730 L 1101 1020 L 1087.12 1020"></path><path stroke-miterlimit="10" stroke="#828282" fill="#828282" d="M 1072.12 1020 L 1087.12 1015 L 1087.12 1025 Z"></path></g></g><g data-cell-id="VblmflZQPWKM-_h5zKfY-73"><g><path stroke-miterlimit="10" stroke="#828282" fill="none" d="M 1069.95 728.76 L 1100 728.67 L 1102 1155 L 1088.12 1155"></path><path stroke-miterlimit="10" stroke="#828282" fill="#828282" d="M 1073.12 1155 L 1088.12 1150 L 1088.12 1160 Z"></path></g><g data-cell-id="VblmflZQPWKM-_h5zKfY-74"><g><g transform="translate(-0.5 -0.5)"><switch><text text-anchor="middle" font-size="11px" font-family="&quot;Helvetica&quot;" fill="rgb(0, 0, 0)" y="944" x="1122">Reads and writes to</text></switch></g></g></g></g><g data-cell-id="VblmflZQPWKM-_h5zKfY-77"><g><path stroke-miterlimit="10" stroke="#828282" fill="none" d="M 938.44 1589.76 L 938.33 1610 L 940.67 1610 L 938.66 1613.94"></path><path stroke-miterlimit="10" stroke="#828282" fill="#828282" d="M 939.91 1628.89 L 933.68 1614.35 L 943.64 1613.52 Z"></path></g><g data-cell-id="VblmflZQPWKM-_h5zKfY-78"><g><g transform="translate(-0.5 -0.5)"><switch><text text-anchor="middle" font-size="11px" font-family="&quot;Helvetica&quot;" fill="rgb(0, 0, 0)" y="1616" x="992">Reads and writes to</text></switch></g></g></g></g><g data-cell-id="VblmflZQPWKM-_h5zKfY-80"><g><path stroke-miterlimit="10" stroke="#828282" fill="none" d="M 720 2480 L 870.67 2480.67 L 870.56 2483.89"></path><path stroke-miterlimit="10" stroke="#828282" fill="#828282" d="M 870.04 2498.88 L 865.56 2483.72 L 875.55 2484.06 Z"></path></g><g data-cell-id="VblmflZQPWKM-_h5zKfY-83"><g><g transform="translate(-0.5 -0.5)"><switch><text text-anchor="middle" font-size="11px" font-family="&quot;Helvetica&quot;" fill="rgb(0, 0, 0)" y="2475" x="802">Uses</text></switch></g></g></g></g><g data-cell-id="VblmflZQPWKM-_h5zKfY-81"><g><path stroke-miterlimit="10" stroke="#828282" fill="none" d="M 718.5 2630 L 870 2630 L 870 2620 L 869.88 2620"></path><path stroke-miterlimit="10" stroke="#828282" fill="#828282" d="M 884.88 2620 L 869.88 2625 L 869.88 2615 Z"></path></g><g data-cell-id="VblmflZQPWKM-_h5zKfY-84"><g><g transform="translate(-0.5 -0.5)"><switch><text text-anchor="middle" font-size="11px" font-family="&quot;Helvetica&quot;" fill="rgb(0, 0, 0)" y="2645" x="810">Uses</text></switch></g></g></g></g><g data-cell-id="VblmflZQPWKM-_h5zKfY-85"><g><rect stroke-dasharray="8 4" stroke="#666666" fill="none" ry="10" rx="10" height="300" width="300.5" y="1200" x="39.5"></rect></g><g><g transform="translate(-0.5 -0.5)"><switch><text font-size="11px" font-family="&quot;Helvetica&quot;" fill="#333333" y="1489" x="50">magpiemonitor-logs-storage-**...</text></switch></g></g></g><g data-cell-id="VblmflZQPWKM-_h5zKfY-86"><g><rect stroke-dasharray="8 4" stroke="#666666" fill="none" ry="10" rx="10" height="230" width="270.5" y="1220" x="59.5"></rect></g><g><g transform="translate(-0.5 -0.5)"><switch><text font-size="11px" font-family="&quot;Helvetica&quot;" fill="#333333" y="1439" x="70">Docker...</text></switch></g></g></g><g data-cell-id="VblmflZQPWKM-_h5zKfY-87"><g><path stroke-miterlimit="10" stroke="#828282" fill="none" d="M 330 1590 L 330 1430 L 261 1430 L 261 1396.12"></path><path stroke-miterlimit="10" stroke="#828282" fill="#828282" d="M 261 1381.12 L 266 1396.12 L 256 1396.12 Z"></path></g><g data-cell-id="VblmflZQPWKM-_h5zKfY-88"><g><g transform="translate(-0.5 -0.5)"><switch><text text-anchor="middle" font-size="11px" font-family="&quot;Helvetica&quot;" fill="rgb(0, 0, 0)" y="1514" x="372">Writes logs to</text></switch></g></g></g></g><g data-cell-id="VblmflZQPWKM-_h5zKfY-89"><g><path stroke-miterlimit="10" stroke="#828282" fill="none" d="M 100 700 L 20 700 L 20 1322.67 L 55.07 1322.73"></path><path stroke-miterlimit="10" stroke="#828282" fill="#828282" d="M 70.07 1322.76 L 55.06 1327.73 L 55.08 1317.73 Z"></path></g></g><g data-cell-id="VblmflZQPWKM-_h5zKfY-90"><g><rect stroke="none" fill="none" height="30" width="100" y="1100" x="10"></rect></g><g><g transform="translate(-0.5 -0.5)"><switch><text text-anchor="middle" font-size="12px" font-family="&quot;Helvetica&quot;" fill="rgb(0, 0, 0)" y="1119" x="60">Reads logs from</text></switch></g></g></g><g data-cell-id="O4s0kgF8oqvcocRECzot-1"><g><path stroke-miterlimit="10" stroke="#d6b656" fill="#fff2cc" d="M 760 2515 C 760 2506.72 813.73 2500 880 2500 C 911.83 2500 942.35 2501.58 964.85 2504.39 C 987.36 2507.21 1000 2511.02 1000 2515 L 1000 2605 C 1000 2613.28 946.27 2620 880 2620 C 813.73 2620 760 2613.28 760 2605 Z"></path><path stroke-miterlimit="10" stroke="#d6b656" fill="none" d="M 1000 2515 C 1000 2523.28 946.27 2530 880 2530 C 813.73 2530 760 2523.28 760 2515"></path></g><g><g transform="translate(-0.5 -0.5)"><switch><text text-anchor="middle" font-size="12px" font-family="&quot;Helvetica&quot;" fill="rgb(0, 0, 0)" y="2577" x="880">Cluster metadata storage...</text></switch></g></g></g><g data-cell-id="O4s0kgF8oqvcocRECzot-2"><g><path stroke="none" fill="none" d="M 10 2320 L 10 2290 L 190 2290 L 190 2320"></path></g><g><g font-size="16px" font-weight="bold" font-family="&quot;Helvetica&quot;" fill="#4D4D4D"><text y="2309.5" x="15.5">Legend</text></g></g><g data-cell-id="O4s0kgF8oqvcocRECzot-3"><g></g><g data-cell-id="O4s0kgF8oqvcocRECzot-4"><g><rect stroke="none" fill="#b1ddf0" height="30" width="180" y="2320" x="10"></rect><path stroke-miterlimit="10" stroke-linecap="square" stroke="#10739e" fill="none" d="M 10 2320 M 190 2320 M 190 2350 M 10 2350"></path></g><g><g transform="translate(-0.5 -0.5)"><switch><text font-size="12px" font-family="&quot;Helvetica&quot;" fill="rgb(0, 0, 0)" y="2339" x="22">Logs ingestion service</text></switch></g></g></g></g><g data-cell-id="O4s0kgF8oqvcocRECzot-5"><g></g><g data-cell-id="O4s0kgF8oqvcocRECzot-6"><g><rect stroke="none" fill="#f8cecc" height="30" width="180" y="2350" x="10"></rect><path stroke-miterlimit="10" stroke-linecap="square" stroke="#b85450" fill="none" d="M 10 2350 M 190 2350 M 190 2380 M 10 2380"></path></g><g><g transform="translate(-0.5 -0.5)"><switch><text font-size="12px" font-family="&quot;Helvetica&quot;" fill="rgb(0, 0, 0)" y="2369" x="22">Cluster metadta service</text></switch></g></g></g></g><g data-cell-id="O4s0kgF8oqvcocRECzot-7"><g></g><g data-cell-id="O4s0kgF8oqvcocRECzot-8"><g><rect stroke="none" fill="#b0e3e6" height="40" width="180" y="2380" x="10"></rect><path stroke-miterlimit="10" stroke-linecap="square" stroke="#0e8088" fill="none" d="M 10 2380 M 190 2380 M 190 2420 M 10 2420"></path></g><g><g transform="translate(-0.5 -0.5)"><switch><text font-size="12px" font-family="&quot;Helvetica&quot;" fill="rgb(0, 0, 0)" y="2404" x="22">Reports service</text></switch></g></g></g></g><g data-cell-id="O4s0kgF8oqvcocRECzot-9"><g></g><g data-cell-id="O4s0kgF8oqvcocRECzot-10"><g><rect stroke="none" fill="#ffe6cc" height="40" width="180" y="2420" x="10"></rect><path stroke-miterlimit="10" stroke-linecap="square" stroke="#d79b00" fill="none" d="M 10 2420 M 190 2420 M 190 2460 M 10 2460"></path></g><g><g transform="translate(-0.5 -0.5)"><switch><text font-size="12px" font-family="&quot;Helvetica&quot;" fill="rgb(0, 0, 0)" y="2444" x="22">Management service</text></switch></g></g></g></g></g><g data-cell-id="D7xy1kiBADzD360u8Bj0-1"><g><rect stroke="none" fill="none" height="40" width="40" y="30" x="380"></rect></g><g><g transform="translate(-0.5 -0.5)"><switch><text font-size="12px" font-family="&quot;Helvetica&quot;" fill="rgb(0, 0, 0)" y="49" x="382">&nbsp;</text></switch></g></g></g></g></g></g></svg>