<svg width="25" height="29" viewBox="0 0 25 29" fill="none" xmlns="http://www.w3.org/2000/svg">
<path d="M0 24.65V21.75H3.125V11.6C3.125 9.59417 3.77604 7.81187 5.07812 6.25312C6.38021 4.69438 8.07292 3.67333 10.1562 3.19V2.175C10.1562 1.57083 10.3841 1.05729 10.8398 0.634375C11.2956 0.211458 11.849 0 12.5 0C13.151 0 13.7044 0.211458 14.1602 0.634375C14.6159 1.05729 14.8438 1.57083 14.8438 2.175V3.19C16.9271 3.67333 18.6198 4.69438 19.9219 6.25312C21.224 7.81187 21.875 9.59417 21.875 11.6V21.75H25V24.65H0ZM12.5 29C11.6406 29 10.9049 28.716 10.293 28.1481C9.68099 27.5802 9.375 26.8975 9.375 26.1H15.625C15.625 26.8975 15.319 27.5802 14.707 28.1481C14.0951 28.716 13.3594 29 12.5 29ZM6.25 21.75H18.75V11.6C18.75 10.005 18.138 8.63958 16.9141 7.50375C15.6901 6.36792 14.2188 5.8 12.5 5.8C10.7812 5.8 9.3099 6.36792 8.08594 7.50375C6.86198 8.63958 6.25 10.005 6.25 11.6V21.75Z" fill="#5CD060"/>
</svg>
